<?xml version="1.0" encoding="iso-8859-1"?>
<!-- Generator: Adobe Illustrator 19.0.0, SVG Export Plug-In . SVG Version: 6.00 Build 0)  -->
<svg version="1.1" id="Capa_1" xmlns="http://www.w3.org/2000/svg" xmlns:xlink="http://www.w3.org/1999/xlink" x="0px" y="0px"
	 viewBox="0 0 512 512" style="enable-background:new 0 0 512 512;" xml:space="preserve">
<path style="fill:#9A4C00;" d="M491.979,411.298L417.592,512H94.408L20.021,411.298l50.341-137.666l57.25-43.022l-30.415-42.003
	l4.069-8.129c0.12-0.24,5.109-10.188,13.278-25.805c11.218-21.446,28.455-53.561,47.332-85.825
	C198.02,7.079,252.071,0.43,254.35,0.18L256,0l1.65,0.18c2.28,0.25,56.34,6.899,92.474,68.668
	c17.357,29.665,33.324,59.21,44.502,80.446c9.848,18.677,15.977,30.925,16.107,31.185l4.069,8.129l-30.405,42.003l57.24,43.022
	L491.979,411.298z"/>
<path style="fill:#703700;" d="M491.979,411.298L417.592,512H256V0l1.65,0.18c2.28,0.25,56.34,6.899,92.474,68.668
	c17.357,29.665,33.324,59.21,44.502,80.446c9.848,18.677,15.977,30.925,16.107,31.185l4.069,8.129l-30.405,42.003l57.24,43.022
	L491.979,411.298z"/>
<path style="fill:#FFDBA9;" d="M342.635,134.856c-0.06,1.06-1.48,26.265-11.678,51.781c-6.309,15.757-14.687,28.475-24.916,37.803
	c-13.528,12.348-29.905,18.607-48.681,18.607c-0.46,0-0.91,0-1.36-0.01c-32.554-0.52-57.93-19.877-73.447-56.06
	c-10.928-25.456-13.068-50.631-13.158-51.691l29.895-2.45c0.01,0.05,0.05,0.49,0.13,1.24h113.2c0.04-0.48,0.06-0.77,0.06-0.81
	L342.635,134.856z"/>
<rect x="112.31" y="291.609" style="fill:#C8C6CD;" width="287.369" height="220.391"/>
<rect x="256.005" y="291.609" style="fill:#AEADB3;" width="143.685" height="220.391"/>
<path style="fill:#FFC473;" d="M342.635,134.856c-0.06,1.06-1.48,26.265-11.678,51.781c-6.309,15.757-14.687,28.475-24.916,37.803
	c-13.528,12.348-29.905,18.607-48.681,18.607c-0.46,0-0.91,0-1.36-0.01V134.076h56.62c0.04-0.48,0.06-0.77,0.06-0.81
	L342.635,134.856z"/>
<path style="fill:#FF8900;" d="M394.626,149.294c-29.385-6.809-76.617-14.687-137.916-14.687H256
	c-62.059,0.08-111.1,10.908-141.455,20.066c11.218-21.446,28.455-53.561,47.332-85.825C198.02,7.079,252.071,0.43,254.35,0.18L256,0
	l1.65,0.18c2.28,0.25,56.34,6.899,92.474,68.668C367.48,98.513,383.448,128.058,394.626,149.294z"/>
<path style="fill:#C06100;" d="M256.71,134.606H256V0l1.65,0.18c2.28,0.25,56.34,6.899,92.474,68.668
	c17.357,29.665,33.324,59.21,44.502,80.446C365.241,142.485,318.009,134.606,256.71,134.606z"/>
<path style="fill:#57555C;" d="M302.422,419.646v13.618h21.406v29.995h-24.206c-6.379,17.167-22.926,29.445-42.293,29.445h-2.66
	c-19.367,0-35.914-12.278-42.293-29.445h-24.206v-29.995h21.406v-13.618h-21.406v-29.995h23.526
	c1.76-5.509,4.549-10.568,8.149-14.937l-5.469-3.829v-24.436h29.995v8.828l4.719,3.309c1.83-0.23,3.689-0.36,5.579-0.36h2.66
	c1.89,0,3.749,0.13,5.579,0.36l4.719-3.309v-8.828h29.995v24.436l-5.469,3.829c3.599,4.369,6.389,9.428,8.149,14.937h23.526v29.995
	H302.422z"/>
<path style="fill:#3C3A41;" d="M300.302,389.652h23.526v29.995h-21.406v13.618h21.406v29.995h-24.206
	c-6.379,17.167-22.926,29.445-42.293,29.445H256V358.227h1.33c1.89,0,3.749,0.13,5.579,0.36l4.719-3.309v-8.828h29.995v24.436
	l-5.469,3.829C295.753,379.083,298.543,384.142,300.302,389.652z"/>
<g>
</g>
<g>
</g>
<g>
</g>
<g>
</g>
<g>
</g>
<g>
</g>
<g>
</g>
<g>
</g>
<g>
</g>
<g>
</g>
<g>
</g>
<g>
</g>
<g>
</g>
<g>
</g>
<g>
</g>
</svg>
